<svg width="48.000000" height="48.000000" viewBox="0 0 48 48" fill="none" xmlns="http://www.w3.org/2000/svg" xmlns:xlink="http://www.w3.org/1999/xlink">
	<desc>
			Created with Pixso.
	</desc>
	<defs>
		<clipPath id="clip153_296">
			<rect id="Icon/Smart Watches" rx="-0.500000" width="47.000000" height="47.000000" transform="translate(0.500000 0.500000)" fill="white" fill-opacity="0"/>
		</clipPath>
	</defs>
	<g clip-path="url(#clip153_296)">
		<path id="Vector" d="M30 12C33.31 12 36 14.68 36 18L36 30C36 33.31 33.31 36 30 36L18 36C14.68 36 12 33.31 12 30L12 18C12 14.68 14.68 12 18 12L30 12Z" stroke="#000000" stroke-opacity="1.000000" stroke-width="2.000000" stroke-linejoin="round"/>
		<path id="Vector" d="M18 36L18 42L30 42L30 36" stroke="#000000" stroke-opacity="1.000000" stroke-width="2.000000" stroke-linejoin="round" stroke-linecap="round"/>
		<path id="Vector" d="M18 12L18 6L30 6L30 12" stroke="#000000" stroke-opacity="1.000000" stroke-width="2.000000" stroke-linejoin="round" stroke-linecap="round"/>
		<line id="Line 11" x1="20.714294" y1="17.000000" x2="20.714294" y2="30.000000" stroke="#000000" stroke-opacity="1.000000" stroke-width="2.000000"/>
		<line id="Line 10" x1="24.714294" y1="22.000000" x2="24.714294" y2="30.000000" stroke="#000000" stroke-opacity="1.000000" stroke-width="2.000000"/>
		<line id="Line 9" x1="28.714294" y1="20.000000" x2="28.714294" y2="30.000000" stroke="#000000" stroke-opacity="1.000000" stroke-width="2.000000"/>
	</g>
</svg>
