<svg width="48.000000" height="48.000000" viewBox="0 0 48 48" fill="none" xmlns="http://www.w3.org/2000/svg" xmlns:xlink="http://www.w3.org/1999/xlink">
	<desc>
			Created with Pixso.
	</desc>
	<defs>
		<clipPath id="clip153_311">
			<rect id="Icon/Headphones" rx="-0.500000" width="47.000000" height="47.000000" transform="translate(0.500000 0.500000)" fill="white" fill-opacity="0"/>
		</clipPath>
	</defs>
	<rect id="Icon/Headphones" rx="-0.500000" width="47.000000" height="47.000000" transform="translate(0.500000 0.500000)" fill="#FFFFFF" fill-opacity="0"/>
	<g clip-path="url(#clip153_311)">
		<path id="Vector" d="M14 26C16.2 26 18 27.79 18 30L18 36C18 38.2 16.2 40 14 40L12 40C9.79 40 8 38.2 8 36L8 30C8 27.79 9.79 26 12 26L14 26Z" stroke="#000000" stroke-opacity="1.000000" stroke-width="2.000000" stroke-linejoin="round"/>
		<path id="Vector" d="M36 26C38.2 26 40 27.79 40 30L40 36C40 38.2 38.2 40 36 40L34 40C31.79 40 30 38.2 30 36L30 30C30 27.79 31.79 26 34 26L36 26Z" stroke="#000000" stroke-opacity="1.000000" stroke-width="2.000000" stroke-linejoin="round"/>
		<path id="Vector" d="M8 30L8 24C8 19.75 9.68 15.68 12.68 12.68C15.68 9.68 19.75 8 24 8C28.24 8 32.31 9.68 35.31 12.68C38.31 15.68 40 19.75 40 24L40 30" stroke="#000000" stroke-opacity="1.000000" stroke-width="2.000000" stroke-linejoin="round" stroke-linecap="round"/>
	</g>
</svg>
