<svg width="32.000000" height="32.000000" viewBox="0 0 32 32" fill="none" xmlns="http://www.w3.org/2000/svg" xmlns:xlink="http://www.w3.org/1999/xlink">
	<desc>
			Created with Pixso.
	</desc>
	<defs>
		<clipPath id="clip156_1342">
			<rect id="Icon/32px/Favorites" rx="-0.500000" width="31.000000" height="31.000000" transform="translate(0.500000 0.500000)" fill="white" fill-opacity="0"/>
		</clipPath>
	</defs>
	<rect id="Icon/32px/Favorites" rx="-0.500000" width="31.000000" height="31.000000" transform="translate(0.500000 0.500000)" fill="#FFFFFF" fill-opacity="0"/>
	<g clip-path="url(#clip156_1342)">
		<path id="Vector" d="M6 11.95C6 14.15 6.87 19.39 15.48 24.69C15.64 24.78 15.81 24.83 16 24.83C16.18 24.83 16.35 24.78 16.51 24.69C25.12 19.39 26 14.15 26 11.95C26 9.21 23.76 7 21 7C18.23 7 16 10 16 10C16 10 13.76 7 11 7C8.23 7 6 9.21 6 11.95Z" stroke="#191919" stroke-opacity="1.000000" stroke-width="1.500000" stroke-linejoin="round"/>
	</g>
</svg>
